<svg  viewBox="0 0 64 73"  xmlns="http://www.w3.org/2000/svg">
<path  d="M63.2934 35.1655C62.9469 35.4983 62.9818 35.9579 62.9342 36.3695C62.4792 40.5002 62.0435 44.6363 61.607 48.7679C61.0106 54.3985 60.4142 60.029 59.8275 65.6623C59.7301 66.5912 59.6784 67.5203 59.5713 68.4465C59.4998 69.064 59.1475 69.5306 58.5719 69.7436C58.0386 69.9392 57.4765 70.0811 56.918 70.1947C54.8771 70.6071 52.8336 70.9834 50.7944 71.4046C49.74 71.6243 48.6969 71.8784 47.6589 72.1589C46.2738 72.5346 44.9853 72.3748 43.7123 71.6862C42.5815 71.0704 41.4056 70.5274 40.2251 70.0082C39.5751 69.7236 38.8808 69.5163 38.189 69.3452C37.2088 69.1023 36.2861 68.8024 35.4236 68.2257C34.5979 67.6737 33.6572 67.2814 32.7446 66.8698C31.3051 66.2183 29.8478 65.616 28.3994 64.989C25.9014 63.9042 23.399 62.8202 20.9037 61.7256C20.4487 61.5265 19.985 61.3061 19.5744 61.0297C18.8251 60.5177 18.7456 59.4085 19.4068 58.7672C19.7639 58.4186 20.1832 58.1309 20.5893 57.8458C21.8808 56.9443 23.1891 56.0578 24.4806 55.1562C25.2849 54.5922 25.3928 54.2785 25.0107 53.329C24.7174 52.5999 24.3932 51.8768 24.0038 51.1939C21.4131 46.6385 18.5284 42.2869 15.2925 38.1503C11.3504 33.1137 7.11052 28.3547 2.72402 23.7112C2.2808 23.2446 1.83673 22.7735 1.43239 22.2718C0.713868 21.3789 0.739331 20.4092 1.30503 19.4665C1.59851 18.9794 1.99469 18.55 2.36188 18.1125C5.28678 14.6652 8.22307 11.2294 11.1436 7.78303C11.8867 6.90631 12.5931 6.00478 13.3152 5.11388C13.963 4.31065 14.7251 3.71827 15.7838 3.52061C16.706 3.34961 17.5936 3.04821 18.2368 2.2916C20.6326 1.82359 23.0284 1.35557 25.4243 0.887558C25.7743 1.34499 26.2826 1.41944 26.7837 1.33984C27.7912 1.18418 28.6238 1.56105 29.394 2.11014C30.4458 2.86026 31.4976 3.61037 32.4822 4.43764C35.9121 7.32022 38.5909 10.8753 41.2724 14.4207C42.0492 15.4486 42.7263 16.5508 43.4873 17.5909C45.6032 20.4879 47.4763 23.5465 49.3151 26.6165C51.2988 29.937 53.2754 33.2681 54.9786 36.744C55.1373 37.065 55.3296 37.3704 55.5086 37.6783C55.7331 38.0551 56.0751 38.1438 56.3852 37.8592C57.2309 37.0859 58.0591 36.2931 58.8933 35.5083C59.573 34.8681 60.2377 34.2216 60.9287 33.5928C61.3325 33.2258 61.8247 33.1709 62.3407 33.3078C62.5535 33.344 62.7583 33.4091 62.963 33.4743C63.0731 34.038 63.1833 34.6017 63.2934 35.1655ZM60.8178 37.1213C60.6828 37.0151 60.6329 36.9471 60.5714 36.9363C60.5046 36.9219 60.4112 36.9355 60.3644 36.9767C59.7821 37.5065 59.2128 38.0566 58.6244 38.5785C57.9811 39.1477 57.3405 39.73 56.6553 40.248C55.6636 40.9995 54.9673 40.852 54.3514 39.8293C54.2422 39.6449 54.1286 39.4613 54.0274 39.2708C52.4822 36.2761 50.863 33.3233 49.1978 30.3931C47.4262 27.2689 45.4648 24.2733 43.559 21.2347C42.5699 19.6585 41.3804 18.2037 40.3542 16.6485C38.5299 13.8866 36.4088 11.361 34.2127 8.89582C32.6357 7.11897 30.8694 5.54368 28.913 4.18843C28.362 3.80226 28.0646 3.80093 27.5829 4.2608C26.9633 4.85734 26.3718 5.4804 25.8074 6.12559C23.6366 8.6117 21.4825 11.1128 19.3222 13.606C18.1466 14.9604 16.9762 16.3184 15.8058 17.6764C15.4519 18.0884 15.4408 18.4061 15.8192 18.7985C16.5139 19.5224 17.2474 20.2112 17.9305 20.9465C22.6634 26.0526 27.2285 31.3059 31.3881 36.8944C34.2146 40.6904 36.9341 44.5713 38.9354 48.8943C39.3241 49.7374 39.6766 50.6058 40.023 51.4663C40.2972 52.1443 40.1053 52.7533 39.6103 53.2386C39.2576 53.5864 38.8365 53.8653 38.4269 54.1556C37.552 54.7792 36.6464 55.363 35.7899 56.0104C35.3395 56.3498 34.7823 56.5867 34.5202 57.1409C34.7832 57.7616 35.447 57.6959 35.9221 57.9277C37.5335 58.7103 39.175 59.4366 40.8157 60.1586C43.3119 61.2575 45.8126 62.3327 48.3186 63.4115C50.9545 64.5471 53.5905 65.6827 56.2335 66.8078C56.5576 66.9457 56.9093 67.037 57.2458 67.145C57.4111 67.1951 57.5346 67.1252 57.5688 66.9494C57.6516 66.5308 57.753 66.1132 57.798 65.6884C58.3714 60.2681 58.9361 54.8495 59.5095 49.4291C59.8651 46.0769 60.2444 42.7291 60.6097 39.3795C60.6888 38.6142 60.7477 37.8391 60.8178 37.1213ZM45.4232 65.7693C45.7711 65.7014 46.1269 65.6502 46.4697 65.5558C46.5736 65.5263 46.7159 65.3888 46.7208 65.2964C46.7257 65.1811 46.6384 65.0153 46.5384 64.948C46.1795 64.7026 45.7823 64.5882 45.3325 64.6029C44.0518 64.6473 42.7685 64.7014 41.4881 64.6772C38.7804 64.6254 36.0765 64.5227 33.3706 64.4569C33.2879 64.4547 33.194 64.5828 33.1232 64.6652C33.1162 64.6757 33.1896 64.794 33.2501 64.8233C34.3319 65.3755 35.4209 65.8715 36.6901 65.8385C37.3995 65.8188 38.1091 65.9636 38.82 65.9985C41.025 66.0981 43.2335 66.1925 45.4232 65.7693ZM6.08455 21.4408C5.6449 21.5541 5.22124 21.6323 4.82628 21.7872C4.66054 21.8516 4.56531 22.0896 4.43698 22.2519C4.61071 22.3688 4.76843 22.5209 4.95998 22.5886C5.1568 22.6599 5.38034 22.6574 5.59325 22.6707C8.80897 22.8655 12.0175 22.6959 15.2304 22.5484C15.4346 22.5405 15.6418 22.4543 15.8375 22.3795C15.9953 22.3213 16.032 22.1815 15.9376 22.0262C15.5909 21.4447 15.1447 21.0563 14.409 21.0354C11.6135 20.9551 8.83772 21.1636 6.08455 21.4408ZM26.2913 43.2669C25.0362 43.5121 23.9175 43.7306 22.7997 43.9535C22.7469 43.9639 22.6761 44.0463 22.6768 44.0964C22.6747 44.1563 22.7244 44.27 22.7675 44.2799C23.1789 44.3733 23.5955 44.4931 24.0125 44.5213C26.5824 44.6868 29.1543 44.6051 31.7163 44.379C32.2824 44.3278 32.8486 44.2538 33.4061 44.1586C33.4898 44.1422 33.6166 43.9254 33.5941 43.8338C33.3735 42.9853 32.8378 42.5367 32.1176 42.618C30.133 42.8274 28.1439 43.0605 26.2913 43.2669ZM23.1133 39.567C23.1193 39.5978 23.121 39.6295 23.127 39.6603C24.3236 39.5135 25.5212 39.371 26.7196 39.21C26.8447 39.1947 27.0599 39.0795 27.0531 39.0214C27.0358 38.7688 26.7959 38.6876 26.5945 38.6629C23.9803 38.3643 21.352 38.4617 18.729 38.3751C18.582 38.3718 18.4228 38.7504 18.4969 38.896C18.9865 39.8108 19.3763 40.0272 20.3599 39.9128C21.2817 39.8105 22.1993 39.6861 23.1133 39.567ZM29.1767 48.4413C30.3313 48.2661 31.3176 48.1192 32.3039 47.9722C32.4457 47.9491 32.5874 47.9488 32.73 47.9301C32.9176 47.9072 32.9972 47.8231 32.929 47.7084C32.8958 47.6554 32.8204 47.597 32.7606 47.5949C30.0646 47.4861 27.3695 47.3816 24.6743 47.2771C24.508 47.2684 24.3746 47.5917 24.4485 47.783C24.8811 48.8507 25.1759 49.0491 26.1816 48.9076C27.2365 48.7609 28.2899 48.5826 29.1767 48.4413ZM24.1475 58.9979C23.7467 59.0762 23.1865 59.1811 22.6289 59.2991C22.5672 59.3112 22.4851 59.3821 22.4778 59.4384C22.4732 59.485 22.5537 59.5927 22.5994 59.593C25.4444 59.6453 28.2877 59.6888 31.13 59.728C31.2629 59.7295 31.4031 59.6746 31.5309 59.6268C31.7099 59.5598 31.7112 59.4498 31.6328 59.2823C31.304 58.6058 30.7487 58.408 30.0523 58.4708C28.1419 58.6383 26.2279 58.811 24.1475 58.9979ZM10.6175 27.9577C10.4069 28.0262 10.3364 28.04 10.2738 28.0705C10.2112 28.1011 10.1573 28.1527 10.1017 28.1956C10.176 28.2954 10.2544 28.4858 10.3318 28.4844C11.1132 28.5055 11.8946 28.5266 12.6736 28.4888C14.457 28.3964 16.2527 28.5074 18.0239 28.1889C18.0856 28.1768 18.1422 28.1155 18.1987 28.077C18.1251 28.0045 18.0526 27.8678 17.9743 27.8648C16.5435 27.8425 15.117 27.8194 13.6842 27.8341C12.6131 27.8513 11.5435 27.9231 10.6175 27.9577ZM30.2991 52.8994C30.7175 52.8177 31.2028 52.7275 31.6899 52.6232C31.822 52.5974 31.9429 52.5372 32.0707 52.4894C31.9504 52.4351 31.8303 52.3351 31.7009 52.3284C30.2193 52.2338 28.7342 52.1444 27.2481 52.0735C27.1513 52.0695 26.964 52.2341 26.9627 52.3213C26.9592 52.514 26.9898 52.764 27.1115 52.8957C27.2385 53.0309 27.4863 53.1289 27.6764 53.1191C28.5312 53.0711 29.3782 52.9833 30.2991 52.8994ZM34.076 48.8285C34.0777 48.8373 34.0795 48.8461 34.082 48.8593C33.4611 48.9807 32.8357 49.1028 32.2155 49.2285C32.1583 49.2397 32.1158 49.3029 32.0637 49.3405C32.1145 49.39 32.1599 49.4817 32.2109 49.4855C33.6168 49.5675 35.0255 49.6398 36.4333 49.7077C36.4984 49.7133 36.5997 49.6935 36.6315 49.6461C36.7016 49.5364 36.7972 49.3943 36.7722 49.2894C36.6201 48.6745 36.2666 48.4097 35.7408 48.5033C35.1841 48.6029 34.6309 48.7201 34.076 48.8285ZM23.0857 42.5855C23.9754 42.4117 24.5399 42.306 25.102 42.187C25.1636 42.175 25.2334 42.1111 25.2627 42.0505C25.276 42.025 25.2079 41.9103 25.171 41.9084C23.8908 41.8384 22.608 41.7781 21.3295 41.7169C21.26 41.7122 21.1956 41.7568 21.126 41.7749C20.9867 41.8113 20.9005 42.2122 21.0169 42.3403C21.2043 42.5506 21.3906 42.8023 21.7173 42.7659C22.2817 42.7059 22.8453 42.6187 23.0857 42.5855ZM28.8715 40.1613C28.8732 40.1701 28.8749 40.1789 28.8767 40.1877C28.3922 40.2824 27.9069 40.3726 27.4242 40.476C27.3713 40.4864 27.3305 40.5584 27.2845 40.6039C27.3354 40.6534 27.3798 40.7407 27.4361 40.748C27.8575 40.7983 28.2814 40.8618 28.7037 40.8708C29.4807 40.8927 30.257 40.8874 31.0332 40.8821C31.1793 40.881 31.3104 40.4987 31.2239 40.3602C31.0701 40.1113 30.8678 39.8948 30.5587 39.9277C29.9935 39.9833 29.4368 40.0829 28.8715 40.1613ZM49.149 67.4282C48.9596 67.4652 48.8152 67.4751 48.683 67.5238C48.5851 67.5612 48.5029 67.655 48.4154 67.7224C48.4733 67.7614 48.5294 67.8144 48.5927 67.8341C49.7961 68.1431 51.0013 68.0631 52.2104 67.8864C52.2729 67.8787 52.34 67.8245 52.3799 67.771C52.4126 67.728 52.4305 67.6559 52.4158 67.6039C52.395 67.544 52.3452 67.4531 52.2933 67.445C51.233 67.2131 50.1698 67.4346 49.149 67.4282ZM12.1867 26.5813C12.1779 26.583 12.3883 26.5602 12.5953 26.5197C12.7318 26.493 12.8615 26.4311 12.9946 26.3869C12.8909 26.3477 12.7892 26.2715 12.688 26.2684C11.4174 26.224 10.152 26.1832 8.87961 26.1528C8.75113 26.1505 8.61526 26.2273 8.48916 26.2839C8.43008 26.3092 8.33633 26.4144 8.34245 26.4223C8.41939 26.5353 8.4901 26.6633 8.60334 26.728C8.71657 26.7928 8.8731 26.8216 9.00425 26.8143C9.99639 26.7439 10.9824 26.6656 12.1867 26.5813ZM10.6693 18.9541C10.6719 18.9673 10.6692 18.977 10.6718 18.9902C10.2518 19.0402 9.83447 19.0806 9.4179 19.1482C9.32896 19.161 9.25895 19.2707 9.18119 19.3408C9.2391 19.3798 9.29164 19.4381 9.35846 19.4525C10.3257 19.6293 11.2961 19.7049 12.277 19.5773C12.5042 19.5466 12.6168 19.3738 12.6029 19.1387C12.5849 18.8359 12.3235 18.8321 12.1413 18.8357C11.6458 18.8502 11.1597 18.9131 10.6693 18.9541ZM46.6419 69.5502C46.3409 69.5542 45.9114 69.5558 45.4828 69.5618C45.2275 69.5659 44.9924 69.7901 45.1028 69.9103C45.1904 70.0075 45.3262 70.141 45.43 70.1344C45.9274 70.1059 46.4301 70.058 46.9154 69.9677C47.4704 69.8593 48.0617 69.8673 48.5551 69.5377C48.0328 69.2511 47.5061 69.5506 46.9843 69.5245C46.9148 69.5198 46.8399 69.5344 46.6419 69.5502ZM21.6734 31.5406C21.3167 31.6103 21.1723 31.6202 21.0445 31.668C20.9467 31.7054 20.8706 31.7843 20.7823 31.8473C20.8465 31.8713 20.9061 31.9191 20.9712 31.9247C21.9462 31.9537 22.9264 31.9863 23.9015 31.9924C23.9657 31.9936 24.0457 31.8179 24.0946 31.7169C24.1043 31.6967 24.0133 31.5819 23.9676 31.5817C23.1316 31.5621 22.2929 31.5522 21.6734 31.5406ZM23.8112 3.81795C23.0581 3.96506 22.7842 4.014 22.5085 4.07701C22.4477 4.09346 22.4016 4.1619 22.3512 4.20831C22.4353 4.28789 22.5122 4.42377 22.6116 4.44093C23.0204 4.52109 23.4328 4.59598 23.8473 4.61104C24.0408 4.61895 24.2412 4.49752 24.4325 4.42357C24.6114 4.35661 24.7891 3.97898 24.683 3.9037C24.5873 3.83551 24.4637 3.74079 24.3598 3.74736C24.0173 3.77311 23.673 3.83581 23.8112 3.81795ZM6.06481 18.5779C6.53165 18.4867 6.81524 18.4405 7.09012 18.373C7.18174 18.3506 7.2552 18.2585 7.33468 18.1972C7.27054 18.1732 7.20737 18.1307 7.14227 18.1251C6.51051 18.0976 5.88257 17.8088 5.25465 18.1052C5.16646 18.1453 5.12783 18.322 5.09649 18.4424C5.08575 18.4811 5.16183 18.5897 5.19878 18.5916C5.55521 18.5906 5.90551 18.5816 6.06481 18.5779ZM18.1219 8.49106C17.8203 8.6094 17.5728 8.67605 17.5788 8.70688C17.6146 8.9605 17.8499 8.87795 18.01 8.90155C18.7171 9.01032 19.4243 9.09622 20.1308 8.92161C20.2445 8.89484 20.327 8.75528 20.4286 8.66685C20.3136 8.59329 20.1963 8.46076 20.0775 8.4611C19.3638 8.45879 18.6552 8.48289 18.1219 8.49106ZM34.083 53.3582C33.8099 53.4115 33.6726 53.4338 33.5333 53.4701C33.4946 53.4823 33.4292 53.5453 33.4387 53.5709C33.5114 53.8493 33.3676 53.5345 33.6392 53.614C34.1103 53.7552 34.5927 53.9079 35.0925 53.7279C35.1525 53.7071 35.1985 53.6386 35.2498 53.5966C35.1656 53.517 35.0888 53.3812 35.0052 53.3746C34.6613 53.3458 34.303 53.3609 34.083 53.3582ZM11.2773 12.3062C11.3037 12.3011 11.4516 12.2859 11.5847 12.2416C11.7055 12.2043 11.8166 12.1414 11.9295 12.0874C11.803 12.0481 11.6774 11.9903 11.5472 11.9792C11.2631 11.9524 10.978 11.9441 10.6902 11.9454C10.6356 11.9469 10.5517 12.009 10.5339 12.0582C10.4769 12.2111 10.5565 12.3144 10.7316 12.3214C10.875 12.3299 11.0185 12.3156 11.2773 12.3062Z" fill="#828282"/>
</svg>
