<svg width="72" height="85" viewBox="0 0 72 85" fill="none" xmlns="http://www.w3.org/2000/svg">
<g clip-path="url(#clip0)">
<path d="M65.2934 40.1655C64.9469 40.4983 64.9818 40.9579 64.9342 41.3695C64.4792 45.5002 64.0435 49.6363 63.607 53.7679C63.0106 59.3985 62.4142 65.029 61.8275 70.6623C61.7301 71.5912 61.6784 72.5203 61.5713 73.4465C61.4998 74.064 61.1475 74.5306 60.5719 74.7436C60.0386 74.9392 59.4765 75.0811 58.918 75.1947C56.8771 75.6071 54.8336 75.9834 52.7944 76.4046C51.74 76.6243 50.6969 76.8784 49.6589 77.1589C48.2738 77.5346 46.9853 77.3748 45.7123 76.6862C44.5815 76.0704 43.4056 75.5274 42.2251 75.0082C41.5751 74.7236 40.8808 74.5163 40.189 74.3452C39.2088 74.1023 38.2861 73.8024 37.4236 73.2257C36.5979 72.6737 35.6572 72.2814 34.7446 71.8698C33.3051 71.2183 31.8478 70.616 30.3994 69.989C27.9014 68.9042 25.399 67.8202 22.9037 66.7256C22.4487 66.5265 21.985 66.3061 21.5744 66.0297C20.8251 65.5177 20.7456 64.4085 21.4068 63.7672C21.7639 63.4186 22.1832 63.1309 22.5893 62.8458C23.8808 61.9443 25.1891 61.0578 26.4806 60.1562C27.2849 59.5922 27.3928 59.2785 27.0107 58.329C26.7174 57.5999 26.3932 56.8768 26.0038 56.1939C23.4131 51.6385 20.5284 47.2869 17.2925 43.1503C13.3504 38.1137 9.11052 33.3547 4.72402 28.7112C4.2808 28.2446 3.83673 27.7735 3.43239 27.2718C2.71387 26.3789 2.73933 25.4092 3.30503 24.4665C3.59851 23.9794 3.99469 23.55 4.36188 23.1125C7.28678 19.6652 10.2231 16.2294 13.1436 12.783C13.8867 11.9063 14.5931 11.0048 15.3152 10.1139C15.963 9.31065 16.7251 8.71827 17.7838 8.52061C18.706 8.34961 19.5936 8.04821 20.2368 7.2916C22.6326 6.82359 25.0284 6.35557 27.4243 5.88756C27.7743 6.34499 28.2826 6.41944 28.7837 6.33984C29.7912 6.18418 30.6238 6.56105 31.394 7.11014C32.4458 7.86026 33.4976 8.61037 34.4822 9.43764C37.9121 12.3202 40.5909 15.8753 43.2724 19.4207C44.0492 20.4486 44.7263 21.5508 45.4873 22.5909C47.6032 25.4879 49.4763 28.5465 51.3151 31.6165C53.2988 34.937 55.2754 38.2681 56.9786 41.744C57.1373 42.065 57.3296 42.3704 57.5086 42.6783C57.7331 43.0551 58.0751 43.1438 58.3852 42.8592C59.2309 42.0859 60.0591 41.2931 60.8933 40.5083C61.573 39.8681 62.2377 39.2216 62.9287 38.5928C63.3325 38.2258 63.8247 38.1709 64.3407 38.3078C64.5535 38.344 64.7583 38.4091 64.963 38.4743C65.0731 39.038 65.1833 39.6017 65.2934 40.1655ZM62.8178 42.1213C62.6828 42.0151 62.6329 41.9471 62.5714 41.9363C62.5046 41.9219 62.4112 41.9355 62.3644 41.9767C61.7821 42.5065 61.2128 43.0566 60.6244 43.5785C59.9811 44.1477 59.3405 44.73 58.6553 45.248C57.6636 45.9995 56.9673 45.852 56.3514 44.8293C56.2422 44.6449 56.1286 44.4613 56.0274 44.2708C54.4822 41.2761 52.863 38.3233 51.1978 35.3931C49.4262 32.2689 47.4648 29.2733 45.559 26.2347C44.5699 24.6585 43.3804 23.2037 42.3542 21.6485C40.5299 18.8866 38.4088 16.361 36.2127 13.8958C34.6357 12.119 32.8694 10.5437 30.913 9.18843C30.362 8.80226 30.0646 8.80093 29.5829 9.2608C28.9633 9.85734 28.3718 10.4804 27.8074 11.1256C25.6366 13.6117 23.4825 16.1128 21.3222 18.606C20.1466 19.9604 18.9762 21.3184 17.8058 22.6764C17.4519 23.0884 17.4408 23.4061 17.8192 23.7985C18.5139 24.5224 19.2474 25.2112 19.9305 25.9465C24.6634 31.0526 29.2285 36.3059 33.3881 41.8944C36.2146 45.6904 38.9341 49.5713 40.9354 53.8943C41.3241 54.7374 41.6766 55.6058 42.023 56.4663C42.2972 57.1443 42.1053 57.7533 41.6103 58.2386C41.2576 58.5864 40.8365 58.8653 40.4269 59.1556C39.552 59.7792 38.6464 60.363 37.7899 61.0104C37.3395 61.3498 36.7823 61.5867 36.5202 62.1409C36.7832 62.7616 37.447 62.6959 37.9221 62.9277C39.5335 63.7103 41.175 64.4366 42.8157 65.1586C45.3119 66.2575 47.8126 67.3327 50.3186 68.4115C52.9545 69.5471 55.5905 70.6827 58.2335 71.8078C58.5576 71.9457 58.9093 72.037 59.2458 72.145C59.4111 72.1951 59.5346 72.1252 59.5688 71.9494C59.6516 71.5308 59.753 71.1132 59.798 70.6884C60.3714 65.2681 60.9361 59.8495 61.5095 54.4291C61.8651 51.0769 62.2444 47.7291 62.6097 44.3795C62.6888 43.6142 62.7477 42.8391 62.8178 42.1213ZM47.4232 70.7693C47.7711 70.7014 48.1269 70.6502 48.4697 70.5558C48.5736 70.5263 48.7159 70.3888 48.7208 70.2964C48.7257 70.1811 48.6384 70.0153 48.5384 69.948C48.1795 69.7026 47.7823 69.5882 47.3325 69.6029C46.0518 69.6473 44.7685 69.7014 43.4881 69.6772C40.7804 69.6254 38.0765 69.5227 35.3706 69.4569C35.2879 69.4547 35.194 69.5828 35.1232 69.6652C35.1162 69.6757 35.1896 69.794 35.2501 69.8233C36.3319 70.3755 37.4209 70.8715 38.6901 70.8385C39.3995 70.8188 40.1091 70.9636 40.82 70.9985C43.025 71.0981 45.2335 71.1925 47.4232 70.7693ZM8.08455 26.4408C7.6449 26.5541 7.22124 26.6323 6.82628 26.7872C6.66054 26.8516 6.56531 27.0896 6.43698 27.2519C6.61071 27.3688 6.76843 27.5209 6.95998 27.5886C7.1568 27.6599 7.38034 27.6574 7.59325 27.6707C10.809 27.8655 14.0175 27.6959 17.2304 27.5484C17.4346 27.5405 17.6418 27.4543 17.8375 27.3795C17.9953 27.3213 18.032 27.1815 17.9376 27.0262C17.5909 26.4447 17.1447 26.0563 16.409 26.0354C13.6135 25.9551 10.8377 26.1636 8.08455 26.4408ZM28.2913 48.2669C27.0362 48.5121 25.9175 48.7306 24.7997 48.9535C24.7469 48.9639 24.6761 49.0463 24.6768 49.0964C24.6747 49.1563 24.7244 49.27 24.7675 49.2799C25.1789 49.3733 25.5955 49.4931 26.0125 49.5213C28.5824 49.6868 31.1543 49.6051 33.7163 49.379C34.2824 49.3278 34.8486 49.2538 35.4061 49.1586C35.4898 49.1422 35.6166 48.9254 35.5941 48.8338C35.3735 47.9853 34.8378 47.5367 34.1176 47.618C32.133 47.8274 30.1439 48.0605 28.2913 48.2669ZM25.1133 44.567C25.1193 44.5978 25.121 44.6295 25.127 44.6603C26.3236 44.5135 27.5212 44.371 28.7196 44.21C28.8447 44.1947 29.0599 44.0795 29.0531 44.0214C29.0358 43.7688 28.7959 43.6876 28.5945 43.6629C25.9803 43.3643 23.352 43.4617 20.729 43.3751C20.582 43.3718 20.4228 43.7504 20.4969 43.896C20.9865 44.8108 21.3763 45.0272 22.3599 44.9128C23.2817 44.8105 24.1993 44.6861 25.1133 44.567ZM31.1767 53.4413C32.3313 53.2661 33.3176 53.1192 34.3039 52.9722C34.4457 52.9491 34.5874 52.9488 34.73 52.9301C34.9176 52.9072 34.9972 52.8231 34.929 52.7084C34.8958 52.6554 34.8204 52.597 34.7606 52.5949C32.0646 52.4861 29.3695 52.3816 26.6743 52.2771C26.508 52.2684 26.3746 52.5917 26.4485 52.783C26.8811 53.8507 27.1759 54.0491 28.1816 53.9076C29.2365 53.7609 30.2899 53.5826 31.1767 53.4413ZM26.1475 63.9979C25.7467 64.0762 25.1865 64.1811 24.6289 64.2991C24.5672 64.3112 24.4851 64.3821 24.4778 64.4384C24.4732 64.485 24.5537 64.5927 24.5994 64.593C27.4444 64.6453 30.2877 64.6888 33.13 64.728C33.2629 64.7295 33.4031 64.6746 33.5309 64.6268C33.7099 64.5598 33.7112 64.4498 33.6328 64.2823C33.304 63.6058 32.7487 63.408 32.0523 63.4708C30.1419 63.6383 28.2279 63.811 26.1475 63.9979ZM12.6175 32.9577C12.4069 33.0262 12.3364 33.04 12.2738 33.0705C12.2112 33.1011 12.1573 33.1527 12.1017 33.1956C12.176 33.2954 12.2544 33.4858 12.3318 33.4844C13.1132 33.5055 13.8946 33.5266 14.6736 33.4888C16.457 33.3964 18.2527 33.5074 20.0239 33.1889C20.0856 33.1768 20.1422 33.1155 20.1987 33.077C20.1251 33.0045 20.0526 32.8678 19.9743 32.8648C18.5435 32.8425 17.117 32.8194 15.6842 32.8341C14.6131 32.8513 13.5435 32.9231 12.6175 32.9577ZM32.2991 57.8994C32.7175 57.8177 33.2028 57.7275 33.6899 57.6232C33.822 57.5974 33.9429 57.5372 34.0707 57.4894C33.9504 57.4351 33.8303 57.3351 33.7009 57.3284C32.2193 57.2338 30.7342 57.1444 29.2481 57.0735C29.1513 57.0695 28.964 57.2341 28.9627 57.3213C28.9592 57.514 28.9898 57.764 29.1115 57.8957C29.2385 58.0309 29.4863 58.1289 29.6764 58.1191C30.5312 58.0711 31.3782 57.9833 32.2991 57.8994ZM36.076 53.8285C36.0777 53.8373 36.0795 53.8461 36.082 53.8593C35.4611 53.9807 34.8357 54.1028 34.2155 54.2285C34.1583 54.2397 34.1158 54.3029 34.0637 54.3405C34.1145 54.39 34.1599 54.4817 34.2109 54.4855C35.6168 54.5675 37.0255 54.6398 38.4333 54.7077C38.4984 54.7133 38.5997 54.6935 38.6315 54.6461C38.7016 54.5364 38.7972 54.3943 38.7722 54.2894C38.6201 53.6745 38.2666 53.4097 37.7408 53.5033C37.1841 53.6029 36.6309 53.7201 36.076 53.8285ZM25.0857 47.5855C25.9754 47.4117 26.5399 47.306 27.102 47.187C27.1636 47.175 27.2334 47.1111 27.2627 47.0505C27.276 47.025 27.2079 46.9103 27.171 46.9084C25.8908 46.8384 24.608 46.7781 23.3295 46.7169C23.26 46.7122 23.1956 46.7568 23.126 46.7749C22.9867 46.8113 22.9005 47.2122 23.0169 47.3403C23.2043 47.5506 23.3906 47.8023 23.7173 47.7659C24.2817 47.7059 24.8453 47.6187 25.0857 47.5855ZM30.8715 45.1613C30.8732 45.1701 30.8749 45.1789 30.8767 45.1877C30.3922 45.2824 29.9069 45.3726 29.4242 45.476C29.3713 45.4864 29.3305 45.5584 29.2845 45.6039C29.3354 45.6534 29.3798 45.7407 29.4361 45.748C29.8575 45.7983 30.2814 45.8618 30.7037 45.8708C31.4807 45.8927 32.257 45.8874 33.0332 45.8821C33.1793 45.881 33.3104 45.4987 33.2239 45.3602C33.0701 45.1113 32.8678 44.8948 32.5587 44.9277C31.9935 44.9833 31.4368 45.0829 30.8715 45.1613ZM51.149 72.4282C50.9596 72.4652 50.8152 72.4751 50.683 72.5238C50.5851 72.5612 50.5029 72.655 50.4154 72.7224C50.4733 72.7614 50.5294 72.8144 50.5927 72.8341C51.7961 73.1431 53.0013 73.0631 54.2104 72.8864C54.2729 72.8787 54.34 72.8245 54.3799 72.771C54.4126 72.728 54.4305 72.6559 54.4158 72.6039C54.395 72.544 54.3452 72.4531 54.2933 72.445C53.233 72.2131 52.1698 72.4346 51.149 72.4282ZM14.1867 31.5813C14.1779 31.583 14.3883 31.5602 14.5953 31.5197C14.7318 31.493 14.8615 31.4311 14.9946 31.3869C14.8909 31.3477 14.7892 31.2715 14.688 31.2684C13.4174 31.224 12.152 31.1832 10.8796 31.1528C10.7511 31.1505 10.6153 31.2273 10.4892 31.2839C10.4301 31.3092 10.3363 31.4144 10.3424 31.4223C10.4194 31.5353 10.4901 31.6633 10.6033 31.728C10.7166 31.7928 10.8731 31.8216 11.0043 31.8143C11.9964 31.7439 12.9824 31.6656 14.1867 31.5813ZM12.6693 23.9541C12.6719 23.9673 12.6692 23.977 12.6718 23.9902C12.2518 24.0402 11.8345 24.0806 11.4179 24.1482C11.329 24.161 11.2589 24.2707 11.1812 24.3408C11.2391 24.3798 11.2916 24.4381 11.3585 24.4525C12.3257 24.6293 13.2961 24.7049 14.277 24.5773C14.5042 24.5466 14.6168 24.3738 14.6029 24.1387C14.5849 23.8359 14.3235 23.8321 14.1413 23.8357C13.6458 23.8502 13.1597 23.9131 12.6693 23.9541ZM48.6419 74.5502C48.3409 74.5542 47.9114 74.5558 47.4828 74.5618C47.2275 74.5659 46.9924 74.7901 47.1028 74.9103C47.1904 75.0075 47.3262 75.141 47.43 75.1344C47.9274 75.1059 48.4301 75.058 48.9154 74.9677C49.4704 74.8593 50.0617 74.8673 50.5551 74.5377C50.0328 74.2511 49.5061 74.5506 48.9843 74.5245C48.9148 74.5198 48.8399 74.5344 48.6419 74.5502ZM23.6734 36.5406C23.3167 36.6103 23.1723 36.6202 23.0445 36.668C22.9467 36.7054 22.8706 36.7843 22.7823 36.8473C22.8465 36.8713 22.9061 36.9191 22.9712 36.9247C23.9462 36.9537 24.9264 36.9863 25.9015 36.9924C25.9657 36.9936 26.0457 36.8179 26.0946 36.7169C26.1043 36.6967 26.0133 36.5819 25.9676 36.5817C25.1316 36.5621 24.2929 36.5522 23.6734 36.5406ZM25.8112 8.81795C25.0581 8.96506 24.7842 9.014 24.5085 9.07701C24.4477 9.09346 24.4016 9.1619 24.3512 9.20831C24.4353 9.28789 24.5122 9.42377 24.6116 9.44093C25.0204 9.52109 25.4328 9.59598 25.8473 9.61104C26.0408 9.61895 26.2412 9.49752 26.4325 9.42357C26.6114 9.35661 26.7891 8.97898 26.683 8.9037C26.5873 8.83551 26.4637 8.74079 26.3598 8.74736C26.0173 8.77311 25.673 8.83581 25.8112 8.81795ZM8.06481 23.5779C8.53165 23.4867 8.81524 23.4405 9.09012 23.373C9.18174 23.3506 9.2552 23.2585 9.33468 23.1972C9.27054 23.1732 9.20737 23.1307 9.14227 23.1251C8.51051 23.0976 7.88257 22.8088 7.25465 23.1052C7.16646 23.1453 7.12783 23.322 7.09649 23.4424C7.08575 23.4811 7.16183 23.5897 7.19878 23.5916C7.55521 23.5906 7.90551 23.5816 8.06481 23.5779ZM20.1219 13.4911C19.8203 13.6094 19.5728 13.6761 19.5788 13.7069C19.6146 13.9605 19.8499 13.8779 20.01 13.9015C20.7171 14.0103 21.4243 14.0962 22.1308 13.9216C22.2445 13.8948 22.327 13.7553 22.4286 13.6668C22.3136 13.5933 22.1963 13.4608 22.0775 13.4611C21.3638 13.4588 20.6552 13.4829 20.1219 13.4911ZM36.083 58.3582C35.8099 58.4115 35.6726 58.4338 35.5333 58.4701C35.4946 58.4823 35.4292 58.5453 35.4387 58.5709C35.5114 58.8493 35.3676 58.5345 35.6392 58.614C36.1103 58.7552 36.5927 58.9079 37.0925 58.7279C37.1525 58.7071 37.1985 58.6386 37.2498 58.5966C37.1656 58.517 37.0888 58.3812 37.0052 58.3746C36.6613 58.3458 36.303 58.3609 36.083 58.3582ZM13.2773 17.3062C13.3037 17.3011 13.4516 17.2859 13.5847 17.2416C13.7055 17.2043 13.8166 17.1414 13.9295 17.0874C13.803 17.0481 13.6774 16.9903 13.5472 16.9792C13.2631 16.9524 12.978 16.9441 12.6902 16.9454C12.6356 16.9469 12.5517 17.009 12.5339 17.0582C12.4769 17.2111 12.5565 17.3144 12.7316 17.3214C12.875 17.3299 13.0185 17.3156 13.2773 17.3062Z" fill="black"/>
<g style="mix-blend-mode:screen">
<rect x="-38.3328" y="-18.0783" width="172" height="117" transform="rotate(18.9468 -38.3328 -18.0783)" fill="#828282"/>
</g>
</g>
<defs>
<clipPath id="clip0">
<rect width="74.2479" height="58.5332" fill="white" transform="translate(57.4473) rotate(78.9468)"/>
</clipPath>
</defs>
</svg>
