<svg width="112" height="122" viewBox="0 0 112 122" fill="none" xmlns="http://www.w3.org/2000/svg">
<ellipse cx="54.903" cy="101.599" rx="31.6869" ry="4.32094" fill="#DADADA"/>
<path d="M89.7066 31.5947C89.6821 31.5109 89.6457 31.433 89.6124 31.3521C89.5455 31.1724 89.4606 31.0048 89.3578 30.8433C89.3063 30.7596 89.255 30.6817 89.1945 30.6071C89.0767 30.4546 88.944 30.3203 88.7993 30.195C88.733 30.1353 88.6726 30.0726 88.6033 30.0189C88.5823 30.004 88.5671 29.986 88.5461 29.9712C88.3354 29.8253 88.1097 29.7124 87.8752 29.6236C87.8662 29.6206 87.8601 29.6146 87.8511 29.6117L54.7834 17.7767C54.119 17.54 53.3929 17.5437 52.731 17.7871L19.7851 29.9571C19.7761 29.9601 19.7701 29.9662 19.7611 29.9692C19.5275 30.0604 19.303 30.1756 19.0938 30.3236C19.0729 30.3388 19.058 30.3569 19.0371 30.3719C18.9683 30.4262 18.9087 30.4896 18.8429 30.55C18.6995 30.6767 18.5681 30.8124 18.4519 30.966C18.3922 31.0413 18.3417 31.1196 18.291 31.2039C18.1899 31.3664 18.1066 31.5349 18.0416 31.7153C18.0089 31.7965 17.9733 31.8747 17.9498 31.9588C17.8733 32.2263 17.8236 32.5027 17.8251 32.7878L18.0383 74.7964C18.0447 76.0567 18.8396 77.1809 20.027 77.6069L53.0947 89.4418C53.1157 89.4477 53.1397 89.4445 53.1607 89.4534C53.4734 89.5569 53.7947 89.6183 54.1218 89.6166C54.449 89.615 54.7696 89.5503 55.0812 89.4437C55.1021 89.4346 55.1262 89.4374 55.1471 89.4314L88.093 77.2614C89.2761 76.8233 90.0594 75.6911 90.053 74.4309L89.8398 32.4222C89.8383 32.1371 89.7859 31.8613 89.7066 31.5947ZM53.8771 41.4147L29.6055 32.728L53.7877 23.7952L78.0593 32.482L53.8771 41.4147ZM84.0411 72.3608L57.0854 82.3159L56.9046 46.6926L83.8603 36.7374L84.0411 72.3608Z" fill="#828282"/>
</svg>
