<svg width="946" height="104" viewBox="0 0 946 104" fill="none" xmlns="http://www.w3.org/2000/svg">
<path d="M0.96875 22.0312H1.48438C14.7344 22.0312 32.1562 22.0469 53.75 22.0781C53.8125 22.1719 53.8438 22.25 53.8438 22.3125C53.8438 23.6562 53.8594 27.6094 53.8906 34.1719C53.8594 34.1719 53.8438 34.1875 53.8438 34.2188C35.375 34.4062 24.6719 34.5 21.7344 34.5C20.3906 34.5625 19.5312 34.5938 19.1562 34.5938V34.6875C26.6875 43.125 30.5 47.3594 30.5938 47.3906V42.5156L30.6406 42.3281L30.9219 42.4219C46.2031 42.8281 53.8438 43.0938 53.8438 43.2188V47.4844C54 47.4844 54.1094 47.5 54.1719 47.5312C54.0469 50.1562 53.9375 54.9062 53.8438 61.7812C53.9688 61.7812 54.0312 61.8281 54.0312 61.9219C53.9375 65.7969 53.8906 68.6875 53.8906 70.5938C53.9531 71.5938 54.0469 72.3125 54.1719 72.75C54.1094 72.8125 54 72.8438 53.8438 72.8438C53.8438 73.7188 53.7969 74.2812 53.7031 74.5312C49.2031 74.375 36.2812 74.0781 14.9375 73.6406V74.0625L14.8438 74.25C14.8125 74.25 14.625 74.2188 14.2812 74.1562C13.625 74.1562 9.625 74.1094 2.28125 74.0156C2.28125 73.9531 2.25 73.9219 2.1875 73.9219C2.25 70.3594 2.28125 67.6406 2.28125 65.7656V60.9844C2.28125 54.0781 2.15625 45.5781 1.90625 35.4844L1.85938 34.7344H1.01562C0.921875 34.7344 0.875 34.6875 0.875 34.5938C0.84375 28.4375 0.828125 24.2656 0.828125 22.0781L0.96875 22.0312ZM14.8438 43.5938V43.6406C14.9375 49.1406 14.9844 53.9688 14.9844 58.125V60.75L15.0781 60.9375L30.5938 61.2656C26.9375 57.0469 21.7188 51.1562 14.9375 43.5938H14.8438ZM37.1562 54.9375C40.1562 58.375 41.6719 60.1562 41.7031 60.2812H41.75V60.0938C41.7188 57.1875 41.7031 55.4219 41.7031 54.7969C40.7969 54.7969 39.2812 54.8438 37.1562 54.9375ZM99.1183 24.048C100.014 24.048 101.038 24.112 102.19 24.24V38.352C100.782 38.224 99.6623 38.16 98.8303 38.16C93.9663 38.16 90.0303 39.44 87.0223 42C84.0783 44.496 82.6063 48.656 82.6063 54.48V78H68.8783V25.2H82.6063V34.416C85.8703 27.504 91.3743 24.048 99.1183 24.048ZM148.928 25.2H162.656L162.56 78H148.832V70.896C144.8 76.4 139.296 79.152 132.32 79.152C125.344 79.152 119.584 76.592 115.04 71.472C110.496 66.288 108.224 59.664 108.224 51.6C108.224 43.536 110.496 36.944 115.04 31.824C119.648 26.64 125.376 24.048 132.224 24.048C139.264 24.048 144.832 26.896 148.928 32.592V25.2ZM135.392 66.096C139.296 66.096 142.528 64.752 145.088 62.064C147.648 59.376 148.928 55.888 148.928 51.6C148.928 47.312 147.648 43.824 145.088 41.136C142.528 38.448 139.296 37.104 135.392 37.104C131.488 37.104 128.288 38.448 125.792 41.136C123.296 43.824 122.048 47.312 122.048 51.6C122.048 55.888 123.296 59.376 125.792 62.064C128.352 64.752 131.552 66.096 135.392 66.096ZM176.891 21.5625L229.109 21.9375C229.172 22.0312 229.203 22.1094 229.203 22.1719C229.203 24.3906 229.172 25.5 229.109 25.5C229.172 28.4062 229.203 30.7812 229.203 32.625V54.4219C229.203 57.1406 229.172 61.0625 229.109 66.1875C229.078 66.1875 229.062 66.2188 229.062 66.2812C229.031 66.2812 228.875 66.25 228.594 66.1875C223.906 66.1875 211.25 66.1094 190.625 65.9531C190.688 67.7344 190.719 69.0156 190.719 69.7969V72.375C190.719 72.625 190.734 72.9844 190.766 73.4531L190.625 73.5469C183.688 73.5781 179.297 73.5938 177.453 73.5938L177.406 73.4531C177.406 69.3906 177.375 56.3594 177.312 34.3594H176.797L176.656 34.3125C176.719 32.5312 176.75 31.25 176.75 30.4688V22.1719C176.75 21.9531 176.797 21.75 176.891 21.5625ZM201.594 34.5938C201.594 34.6562 206.516 38.5781 216.359 46.3594V34.6875C210.172 34.625 205.25 34.5938 201.594 34.5938ZM190.344 42.0938C190.344 43.2812 190.391 46.9844 190.484 53.2031H194.281C196.406 53.2031 199.766 53.2188 204.359 53.25C204.328 53.1562 199.672 49.4375 190.391 42.0938H190.344ZM274.859 21.7969C274.859 21.8281 274.891 21.8438 274.953 21.8438C274.984 25.1875 275 27.7969 275 29.6719V31.1719C275 35.4844 275.031 41.75 275.094 49.9688C276.625 50.0312 277.766 50.0625 278.516 50.0625H279.828L280.297 50.1094H280.344C280.344 45.5156 280.422 36.1406 280.578 21.9844C280.609 21.9844 280.625 21.9688 280.625 21.9375C284.031 21.9688 286.609 21.9844 288.359 21.9844H291.266C291.672 21.9844 292.328 22.0156 293.234 22.0781C293.234 22.1094 293.266 22.125 293.328 22.125L293.094 50.3438L299.75 50.4844C299.75 50.5469 299.781 50.5781 299.844 50.5781C299.688 56.9219 299.609 61.0938 299.609 63.0938L299.562 63.2344C295.75 63.2031 293.547 63.1562 292.953 63.0938V67.6406C292.953 69.1094 292.922 71.1094 292.859 73.6406L292.719 73.7344H291.922C289.234 73.7344 285.359 73.7031 280.297 73.6406L280.156 73.5469C280.156 73.0156 280.172 69.4844 280.203 62.9531V62.8594C278.703 62.8281 277.609 62.8125 276.922 62.8125H275.281L275.141 62.7188V73.5L275.094 73.6406C271.688 73.7031 269.125 73.7344 267.406 73.7344H262.531C262.438 73.7344 262.391 73.6719 262.391 73.5469V69.6094C262.391 68.1406 262.375 65.7812 262.344 62.5312L247.953 62.2031C247.953 62.1719 247.938 62.1562 247.906 62.1562L248.141 49.5938L248.188 49.4531L261.312 49.6875C261.906 49.75 262.25 49.7812 262.344 49.7812C262.281 47.75 262.25 46.2344 262.25 45.2344V43.3125C262.25 38.3438 262.234 31.2188 262.203 21.9375L262.344 21.8438H265.719C267.875 21.8438 270.922 21.8281 274.859 21.7969ZM321.322 0.815998C323.818 0.815998 325.866 1.584 327.466 3.12C329.066 4.592 329.866 6.512 329.866 8.88C329.866 11.248 329.066 13.2 327.466 14.736C325.866 16.272 323.818 17.04 321.322 17.04C318.89 17.04 316.842 16.272 315.178 14.736C313.578 13.2 312.778 11.248 312.778 8.88C312.778 6.576 313.578 4.656 315.178 3.12C316.842 1.584 318.89 0.815998 321.322 0.815998ZM314.41 78V25.2H328.138V78H314.41ZM342.969 21.0938L395.703 21.8438L395.75 21.9844V25.9219C395.75 28.0156 395.734 30.8906 395.703 34.5469L395.562 34.6406H394.859L395.094 47.6719C394.781 47.7344 390.672 47.875 382.766 48.0938L382.625 47.8594C382.625 46.7656 382.469 42.4062 382.156 34.7812C359 35.0312 345.969 35.1562 343.062 35.1562C342.938 35.2188 342.859 35.25 342.828 35.25L342.734 35.0625C342.797 27.5938 342.828 22.9688 342.828 21.1875L342.969 21.0938ZM355.297 48.4688L355.391 48.6094C355.672 56.4219 355.812 60.8594 355.812 61.9219C355.875 62.0156 355.906 62.0938 355.906 62.1562C366.062 62.0625 374.594 61.9375 381.5 61.7812C384.281 61 387.734 59.625 391.859 57.6562C391.891 57.5625 392.281 57.3594 393.031 57.0469C394.438 59.7969 395.172 61.1719 395.234 61.1719C395.328 61.1406 395.406 61.125 395.469 61.125C395.562 61.7188 395.734 62.3281 395.984 62.9531V63.0469L395.703 63.0938C395.703 63.9062 395.844 67.2656 396.125 73.1719L395.984 73.2188C390.172 73.4688 384.578 73.5938 379.203 73.5938H374.375C367.344 73.5938 356.875 73.5312 342.969 73.4062L342.875 73.2188V62.3906C342.875 62.2656 342.984 62.2031 343.203 62.2031C343.047 55.9531 342.969 51.625 342.969 49.2188L342.875 48.8438L343.062 48.75L355.297 48.4688ZM413.984 21.0938C414.203 21.0938 414.75 21.125 415.625 21.1875C417.438 21.1875 434.562 21.4375 467 21.9375L467.094 22.0781V23.5781C467.094 27.0469 466.984 35.0312 466.766 47.5312C466.672 47.5938 466.609 47.625 466.578 47.625C464.734 47.625 460.672 47.5938 454.391 47.5312C454.297 47.3125 454.25 47 454.25 46.5938V34.8281C454.094 34.8281 453.625 34.8594 452.844 34.9219C451.469 34.9219 445.125 34.9688 433.812 35.0625L466.859 61.5L467.469 73.4531L467.281 73.5469C460.281 73.7969 453.703 73.9219 447.547 73.9219C442.703 73.9219 431.547 73.8438 414.078 73.6875L413.984 73.5469V73.0781H413.516L413.375 73.0312L413.891 48.6562C413.953 48.6562 413.984 48.625 413.984 48.5625C414.609 48.625 414.984 48.6562 415.109 48.6562C416.484 48.6562 420.219 48.6875 426.312 48.75L426.406 48.8906V62.2969H426.453C433.141 62.2969 440.125 62.2344 447.406 62.1094L413.844 35.2031V35.1562C413.844 32 413.859 27.3438 413.891 21.1875C413.953 21.1875 413.984 21.1562 413.984 21.0938Z" fill="#828282"/>
<path d="M537.209 10.8C547.001 10.8 555.161 14 561.689 20.4C568.281 26.8 571.577 34.8 571.577 44.4C571.577 54 568.281 62 561.689 68.4C555.161 74.8 547.001 78 537.209 78H512.921V10.8H537.209ZM537.209 64.944C543.289 64.944 548.249 63.024 552.089 59.184C555.929 55.344 557.849 50.416 557.849 44.4C557.849 38.384 555.929 33.456 552.089 29.616C548.249 25.776 543.289 23.856 537.209 23.856H526.649V64.944H537.209ZM607.62 24.048C616.26 24.048 623.076 27.024 628.068 32.976C633.124 38.928 635.3 46.32 634.596 55.152H594.084C594.532 59.248 596.004 62.384 598.5 64.56C600.996 66.736 604.1 67.824 607.812 67.824C610.5 67.824 612.9 67.248 615.012 66.096C617.124 64.88 618.628 63.248 619.524 61.2H633.732C631.876 67.152 628.612 71.632 623.94 74.64C619.268 77.648 613.924 79.152 607.908 79.152C599.716 79.152 593.028 76.56 587.844 71.376C582.66 66.192 580.068 59.632 580.068 51.696C580.068 43.76 582.66 37.168 587.844 31.92C593.028 26.672 599.62 24.048 607.62 24.048ZM607.524 35.376C604.26 35.376 601.54 36.272 599.364 38.064C597.188 39.792 595.652 42.128 594.756 45.072H620.004C619.236 42.128 617.764 39.792 615.588 38.064C613.412 36.272 610.724 35.376 607.524 35.376ZM668.325 79.152C661.221 79.152 655.301 77.52 650.565 74.256C645.829 70.928 642.981 66.384 642.021 60.624H655.941C657.093 65.36 661.349 67.728 668.709 67.728C674.661 67.728 677.637 66.288 677.637 63.408C677.637 63.024 677.573 62.672 677.445 62.352C677.381 62.032 677.221 61.744 676.965 61.488C676.773 61.232 676.549 61.008 676.293 60.816C676.037 60.56 675.653 60.336 675.141 60.144C674.693 59.952 674.277 59.792 673.893 59.664C673.509 59.536 672.933 59.376 672.165 59.184C671.461 58.992 670.821 58.832 670.245 58.704C669.733 58.576 668.997 58.416 668.037 58.224C667.077 58.032 666.245 57.84 665.541 57.648C657.669 55.792 652.165 53.776 649.029 51.6C645.957 49.36 644.421 46.032 644.421 41.616C644.421 36.112 646.501 31.824 650.661 28.752C654.885 25.616 660.517 24.048 667.557 24.048C674.597 24.048 680.069 25.584 683.973 28.656C687.877 31.664 690.309 35.76 691.269 40.944H677.349C676.197 37.36 672.773 35.568 667.077 35.568C661.189 35.568 658.245 37.04 658.245 39.984C658.245 41.136 658.853 41.968 660.069 42.48C661.285 42.992 664.037 43.728 668.325 44.688C672.613 45.648 676.005 46.544 678.501 47.376C680.997 48.144 683.365 49.168 685.605 50.448C687.845 51.728 689.445 53.264 690.405 55.056C691.365 56.848 691.845 59.024 691.845 61.584C691.845 67.28 689.637 71.632 685.221 74.64C680.805 77.648 675.173 79.152 668.325 79.152ZM707.665 0.815998C710.161 0.815998 712.209 1.584 713.809 3.12C715.409 4.592 716.209 6.512 716.209 8.88C716.209 11.248 715.409 13.2 713.809 14.736C712.209 16.272 710.161 17.04 707.665 17.04C705.233 17.04 703.185 16.272 701.521 14.736C699.921 13.2 699.121 11.248 699.121 8.88C699.121 6.576 699.921 4.656 701.521 3.12C703.185 1.584 705.233 0.815998 707.665 0.815998ZM700.753 78V25.2H714.481V78H700.753ZM764.959 25.2H778.687V77.328C778.687 85.136 776.319 91.376 771.583 96.048C766.847 100.784 760.511 103.152 752.575 103.152C745.727 103.152 739.775 101.424 734.719 97.968C729.727 94.512 726.751 89.488 725.791 82.896H739.999C741.407 88.272 745.471 90.96 752.191 90.96C760.703 90.96 764.959 86.544 764.959 77.712V70.128C760.863 75.632 755.327 78.384 748.351 78.384C741.439 78.384 735.679 75.824 731.071 70.704C726.527 65.584 724.255 59.088 724.255 51.216C724.255 43.344 726.559 36.848 731.167 31.728C735.775 26.608 741.503 24.048 748.351 24.048C755.391 24.048 760.927 26.864 764.959 32.496V25.2ZM751.423 65.328C755.327 65.328 758.559 64.016 761.119 61.392C763.679 58.768 764.959 55.376 764.959 51.216C764.959 47.12 763.647 43.76 761.023 41.136C758.463 38.448 755.263 37.104 751.423 37.104C747.583 37.104 744.383 38.448 741.823 41.136C739.327 43.76 738.079 47.12 738.079 51.216C738.079 55.312 739.327 58.704 741.823 61.392C744.383 64.016 747.583 65.328 751.423 65.328ZM819.772 24.048C825.724 24.048 830.396 25.904 833.788 29.616C837.18 33.328 838.876 38.416 838.876 44.88V78H825.148V47.856C825.148 44.272 824.38 41.584 822.844 39.792C821.308 38 818.78 37.104 815.26 37.104C807.324 37.104 803.356 41.488 803.356 50.256V78H789.628V25.2H803.356V32.4C807.324 26.832 812.796 24.048 819.772 24.048ZM875.651 24.048C884.291 24.048 891.107 27.024 896.099 32.976C901.155 38.928 903.331 46.32 902.627 55.152H862.115C862.563 59.248 864.035 62.384 866.531 64.56C869.027 66.736 872.131 67.824 875.843 67.824C878.531 67.824 880.931 67.248 883.043 66.096C885.155 64.88 886.659 63.248 887.555 61.2H901.763C899.907 67.152 896.643 71.632 891.971 74.64C887.299 77.648 881.955 79.152 875.939 79.152C867.747 79.152 861.059 76.56 855.875 71.376C850.691 66.192 848.099 59.632 848.099 51.696C848.099 43.76 850.691 37.168 855.875 31.92C861.059 26.672 867.651 24.048 875.651 24.048ZM875.555 35.376C872.291 35.376 869.571 36.272 867.395 38.064C865.219 39.792 863.683 42.128 862.787 45.072H888.035C887.267 42.128 885.795 39.792 883.619 38.064C881.443 36.272 878.755 35.376 875.555 35.376ZM942.212 24.048C943.108 24.048 944.132 24.112 945.284 24.24V38.352C943.876 38.224 942.756 38.16 941.924 38.16C937.06 38.16 933.124 39.44 930.116 42C927.172 44.496 925.7 48.656 925.7 54.48V78H911.972V25.2H925.7V34.416C928.964 27.504 934.468 24.048 942.212 24.048Z" fill="black"/>
</svg>
