<svg width="40" height="40" viewBox="0 0 40 40" fill="none" xmlns="http://www.w3.org/2000/svg">
<path d="M20 38C29.9411 38 38 29.9411 38 20C38 10.0589 29.9411 2 20 2C10.0589 2 2 10.0589 2 20C2 29.9411 10.0589 38 20 38Z" stroke="#6C63FF" stroke-width="3"/>
<path d="M23.1758 13.8906H26.3047C26.3359 13.8984 26.3516 13.9102 26.3516 13.9258V19.2109C26.3516 20.1719 26.3438 21.4453 26.3281 23.0312C26.3125 23.0312 26.3047 23.0352 26.3047 23.043C25.7734 23.0352 25.4844 23.0312 25.4375 23.0312C24.0312 23.0312 20.0273 23.0078 13.4258 22.9609L13.4141 22.9141V18.1211C13.4141 18.0977 13.4258 18.0859 13.4492 18.0859H16.6016C16.625 18.0859 16.6367 18.0977 16.6367 18.1211V20.0078C16.7305 20.0078 16.9883 20 17.4102 19.9844C17.7461 19.9844 19.4688 19.9766 22.5781 19.9609C22.8906 19.9531 23.0781 19.9492 23.1406 19.9492V13.9258C23.1406 13.9023 23.1523 13.8906 23.1758 13.8906ZM26.293 23.8633L26.3047 23.8984V26.9219C26.3047 26.9453 26.293 26.957 26.2695 26.957C18.8008 26.9102 14.5156 26.8867 13.4141 26.8867L13.3906 26.8516V23.9688C13.3906 23.9453 13.4023 23.9336 13.4258 23.9336C21.6133 23.8867 25.9023 23.8633 26.293 23.8633Z" fill="black"/>
</svg>
