<svg width="159" height="40" viewBox="0 0 159 40" fill="none" xmlns="http://www.w3.org/2000/svg">
<path d="M20 38C29.9411 38 38 29.9411 38 20C38 10.0589 29.9411 2 20 2C10.0589 2 2 10.0589 2 20C2 29.9411 10.0589 38 20 38Z" stroke="#6C63FF" stroke-width="3"/>
<path d="M23.1758 13.8906H26.3047C26.3359 13.8984 26.3516 13.9102 26.3516 13.9258V19.2109C26.3516 20.1719 26.3438 21.4453 26.3281 23.0312C26.3125 23.0312 26.3047 23.0352 26.3047 23.043C25.7734 23.0352 25.4844 23.0312 25.4375 23.0312C24.0312 23.0312 20.0273 23.0078 13.4258 22.9609L13.4141 22.9141V18.1211C13.4141 18.0977 13.4258 18.0859 13.4492 18.0859H16.6016C16.625 18.0859 16.6367 18.0977 16.6367 18.1211V20.0078C16.7305 20.0078 16.9883 20 17.4102 19.9844C17.7461 19.9844 19.4688 19.9766 22.5781 19.9609C22.8906 19.9531 23.0781 19.9492 23.1406 19.9492V13.9258C23.1406 13.9023 23.1523 13.8906 23.1758 13.8906ZM26.293 23.8633L26.3047 23.8984V26.9219C26.3047 26.9453 26.293 26.957 26.2695 26.957C18.8008 26.9102 14.5156 26.8867 13.4141 26.8867L13.3906 26.8516V23.9688C13.3906 23.9453 13.4023 23.9336 13.4258 23.9336C21.6133 23.8867 25.9023 23.8633 26.293 23.8633Z" fill="black"/>
<path d="M57.534 13.4H60.126V21.824C60.126 23.228 59.718 24.314 58.902 25.082C58.086 25.838 57.048 26.216 55.788 26.216C54.54 26.216 53.514 25.844 52.71 25.1C51.906 24.344 51.504 23.264 51.504 21.86V21.212H54.096V21.788C54.096 23.108 54.66 23.768 55.788 23.768C56.952 23.768 57.534 23.096 57.534 21.752V13.4ZM69.9181 16.1H72.4921L72.4741 26H69.9001V24.668C69.1441 25.7 68.1121 26.216 66.8041 26.216C65.4961 26.216 64.4161 25.736 63.5641 24.776C62.7121 23.804 62.2861 22.562 62.2861 21.05C62.2861 19.538 62.7121 18.302 63.5641 17.342C64.4281 16.37 65.5021 15.884 66.7861 15.884C68.1061 15.884 69.1501 16.418 69.9181 17.486V16.1ZM67.3801 23.768C68.1121 23.768 68.7181 23.516 69.1981 23.012C69.6781 22.508 69.9181 21.854 69.9181 21.05C69.9181 20.246 69.6781 19.592 69.1981 19.088C68.7181 18.584 68.1121 18.332 67.3801 18.332C66.6481 18.332 66.0481 18.584 65.5801 19.088C65.1121 19.592 64.8781 20.246 64.8781 21.05C64.8781 21.854 65.1121 22.508 65.5801 23.012C66.0601 23.516 66.6601 23.768 67.3801 23.768ZM81.5636 16.1H84.3176L77.8736 30.5H75.1376L77.7296 24.686L73.9136 16.1H76.6496L79.0976 21.896L81.5636 16.1ZM95.9798 18.314C96.9038 18.506 97.6478 18.698 98.2118 18.89C98.7758 19.082 99.2918 19.328 99.7598 19.628C100.228 19.916 100.558 20.276 100.75 20.708C100.954 21.14 101.056 21.662 101.056 22.274C101.056 22.97 100.906 23.588 100.606 24.128C100.318 24.656 99.9278 25.064 99.4358 25.352C98.9558 25.64 98.4458 25.856 97.9058 26C97.3778 26.144 96.8318 26.216 96.2678 26.216C94.5518 26.216 93.2438 25.814 92.3438 25.01C91.4558 24.194 90.9338 23.174 90.7778 21.95H93.3698C93.5498 22.598 93.8558 23.072 94.2878 23.372C94.7318 23.672 95.3858 23.822 96.2498 23.822C96.9698 23.822 97.5158 23.696 97.8878 23.444C98.2718 23.192 98.4638 22.838 98.4638 22.382C98.4638 22.094 98.3558 21.866 98.1398 21.698C97.9358 21.518 97.6838 21.386 97.3838 21.302C97.0838 21.218 96.5498 21.092 95.7818 20.924C95.7218 20.912 95.6738 20.906 95.6378 20.906C95.6138 20.894 95.5718 20.882 95.5118 20.87C95.4638 20.858 95.4158 20.846 95.3678 20.834C94.7198 20.702 94.1738 20.558 93.7298 20.402C93.2858 20.246 92.8478 20.03 92.4158 19.754C91.9838 19.478 91.6538 19.124 91.4258 18.692C91.2098 18.26 91.1018 17.744 91.1018 17.144C91.1018 15.896 91.5698 14.924 92.5058 14.228C93.4418 13.532 94.5578 13.184 95.8538 13.184C97.4378 13.184 98.6378 13.55 99.4538 14.282C100.282 15.002 100.774 15.938 100.93 17.09H98.3198C98.0078 16.082 97.1918 15.578 95.8718 15.578C95.1398 15.578 94.5938 15.716 94.2338 15.992C93.8738 16.256 93.6938 16.604 93.6938 17.036C93.6938 17.384 93.8438 17.636 94.1438 17.792C94.4558 17.948 95.0678 18.122 95.9798 18.314ZM109.395 16.1H111.969V26H109.395V24.632C108.639 25.688 107.619 26.216 106.335 26.216C105.243 26.216 104.379 25.868 103.743 25.172C103.119 24.464 102.807 23.51 102.807 22.31V16.1H105.381V21.752C105.381 22.424 105.519 22.928 105.795 23.264C106.083 23.6 106.551 23.768 107.199 23.768C107.907 23.768 108.447 23.558 108.819 23.138C109.203 22.718 109.395 22.106 109.395 21.302V16.1ZM121.368 23.336L121.8 25.424C121.5 25.628 121.068 25.814 120.504 25.982C119.952 26.138 119.4 26.216 118.848 26.216C117.78 26.216 116.892 25.88 116.184 25.208C115.488 24.536 115.14 23.528 115.14 22.184V18.53H113.376V16.1H115.14V13.958L117.714 13.4V16.1H121.386V18.53H117.714V22.04C117.714 23.228 118.242 23.822 119.298 23.822C119.766 23.822 120.456 23.66 121.368 23.336ZM129.223 15.884C130.327 15.884 131.197 16.232 131.833 16.928C132.469 17.624 132.787 18.578 132.787 19.79V26H130.213V20.348C130.213 19.676 130.069 19.172 129.781 18.836C129.493 18.5 129.019 18.332 128.359 18.332C126.883 18.332 126.145 19.154 126.145 20.798V26H123.571V12.14H126.145V17.45C126.889 16.406 127.915 15.884 129.223 15.884ZM142.147 16.1H144.721L144.703 26H142.129V24.668C141.373 25.7 140.341 26.216 139.033 26.216C137.725 26.216 136.645 25.736 135.793 24.776C134.941 23.804 134.515 22.562 134.515 21.05C134.515 19.538 134.941 18.302 135.793 17.342C136.657 16.37 137.731 15.884 139.015 15.884C140.335 15.884 141.379 16.418 142.147 17.486V16.1ZM139.609 23.768C140.341 23.768 140.947 23.516 141.427 23.012C141.907 22.508 142.147 21.854 142.147 21.05C142.147 20.246 141.907 19.592 141.427 19.088C140.947 18.584 140.341 18.332 139.609 18.332C138.877 18.332 138.277 18.584 137.809 19.088C137.341 19.592 137.107 20.246 137.107 21.05C137.107 21.854 137.341 22.508 137.809 23.012C138.289 23.516 138.889 23.768 139.609 23.768ZM152.442 15.884C152.61 15.884 152.802 15.896 153.018 15.92V18.566C152.754 18.542 152.544 18.53 152.388 18.53C151.476 18.53 150.738 18.77 150.174 19.25C149.622 19.718 149.346 20.498 149.346 21.59V26H146.772V16.1H149.346V17.828C149.958 16.532 150.99 15.884 152.442 15.884ZM154.156 23.588C154.468 23.3 154.852 23.156 155.308 23.156C155.764 23.156 156.142 23.3 156.442 23.588C156.754 23.876 156.91 24.242 156.91 24.686C156.91 25.13 156.754 25.496 156.442 25.784C156.142 26.072 155.764 26.216 155.308 26.216C154.852 26.216 154.468 26.072 154.156 25.784C153.856 25.496 153.706 25.13 153.706 24.686C153.706 24.242 153.856 23.876 154.156 23.588Z" fill="black"/>
</svg>
