<svg  viewBox="0 0 46 67"  xmlns="http://www.w3.org/2000/svg">
<g clip-path="url(#clip0)">
<path d="M11.9152 66.8486C18.034 66.8486 22.9999 61.9123 22.9999 55.8301V44.8115H11.9152C5.79641 44.8115 0.830444 49.7478 0.830444 55.8301C0.830444 61.9123 5.79641 66.8486 11.9152 66.8486Z" fill="#0ACF83"/>
<path d="M0.830444 33.7931C0.830444 27.7108 5.79641 22.7745 11.9152 22.7745H22.9999V44.8116H11.9152C5.79641 44.8116 0.830444 39.8753 0.830444 33.7931Z" fill="#A259FF"/>
<path d="M0.830811 11.7559C0.830811 5.67372 5.79678 0.737427 11.9156 0.737427H23.0003V22.7745H11.9156C5.79678 22.7745 0.830811 17.8382 0.830811 11.7559Z" fill="#F24E1E"/>
<path d="M23 0.737427H34.0847C40.2035 0.737427 45.1695 5.67372 45.1695 11.7559C45.1695 17.8382 40.2035 22.7745 34.0847 22.7745H23V0.737427Z" fill="#FF7262"/>
<path d="M45.1695 33.7931C45.1695 39.8753 40.2035 44.8116 34.0847 44.8116C27.966 44.8116 23 39.8753 23 33.7931C23 27.7108 27.966 22.7745 34.0847 22.7745C40.2035 22.7745 45.1695 27.7108 45.1695 33.7931Z" fill="#1ABCFE"/>
</g>
<defs>
<clipPath id="clip0">
<rect width="44.3478" height="66.1111" fill="white" transform="translate(0.82605 0.737427)"/>
</clipPath>
</defs>
</svg>
