<svg width="71" height="69" viewBox="0 0 71 69" fill="none" xmlns="http://www.w3.org/2000/svg">
<path d="M12.5729 0H58.4271C65.3792 0 71 5.60256 71 12.5321V56.468C71 63.3974 65.3792 69 58.4271 69H12.5729C5.62083 69 0 63.3974 0 56.468V12.5321C0 5.60256 5.62083 0 12.5729 0Z" fill="#330000"/>
<path d="M34.4054 41.4H23.4004L21.1521 48.3295C21.0929 48.5949 20.8563 48.7718 20.59 48.7423H15.0284C14.7029 48.7423 14.6142 48.5654 14.7029 48.2116L24.2288 20.8769C24.3175 20.5821 24.4063 20.2577 24.5246 19.9039C24.6429 19.2846 24.7021 18.6359 24.7021 17.9872C24.6725 17.8398 24.7909 17.6923 24.9388 17.6628C24.9684 17.6628 24.9979 17.6628 25.0275 17.6628H32.6009C32.8375 17.6628 32.9559 17.7513 32.9854 17.8987L43.7834 48.2705C43.8721 48.5949 43.7834 48.7423 43.4875 48.7423H37.3046C37.0975 48.7718 36.8904 48.6244 36.8313 48.418L34.4054 41.4ZM25.1163 35.4141H32.6304C32.4529 34.7949 32.2163 34.0577 31.95 33.291C31.6838 32.4949 31.4175 31.6398 31.1513 30.7551C30.8554 29.841 30.5892 28.9564 30.2934 28.0423C29.9975 27.1282 29.7313 26.2731 29.4946 25.418C29.2579 24.5923 29.0509 23.8257 28.8438 23.118H28.7846C28.5184 24.3859 28.1929 25.6539 27.7788 26.9218C27.335 28.3372 26.8913 29.8116 26.4179 31.2859C26.0038 32.7898 25.56 34.1757 25.1163 35.4141Z" fill="#FF9A00"/>
<path d="M50.2325 22.7051C49.2563 22.7346 48.3096 22.3513 47.5996 21.6731C46.9192 20.9359 46.5642 19.9628 46.5938 18.9602C46.5642 17.9577 46.9488 17.0141 47.6588 16.3359C48.3688 15.6577 49.3154 15.3038 50.2917 15.3038C51.4454 15.3038 52.3329 15.6577 52.9838 16.3359C53.6346 17.0436 53.9896 17.9872 53.96 18.9602C53.9896 19.9628 53.6346 20.9359 52.9246 21.6731C52.2442 22.3808 51.2383 22.7641 50.2325 22.7051ZM46.9192 48.3V25.5949C46.9192 25.3 47.0375 25.182 47.3037 25.182H53.1613C53.4275 25.182 53.5458 25.3295 53.5458 25.5949V48.3C53.5458 48.6243 53.4275 48.7718 53.1613 48.7718H47.3629C47.0671 48.7718 46.9192 48.5949 46.9192 48.3Z" fill="#FF9A00"/>
</svg>
